<svg xmlns="http://www.w3.org/2000/svg" viewBox="0 0 64 64">
  <rect width="64" height="64" rx="10" fill="#08101d"/>
  <ellipse cx="32" cy="40" rx="20" ry="10" fill="none" stroke="#9aa3ad" stroke-width="3"/>
  <ellipse cx="32" cy="40" rx="15" ry="7" fill="#101826" stroke="#6f7780" stroke-width="1.5"/>
  <g stroke="#c1121f" stroke-width="1.2" opacity="0.9">
    <line x1="22" y1="34" x2="22" y2="46"/>
    <line x1="28" y1="33" x2="28" y2="47"/>
    <line x1="36" y1="33" x2="36" y2="47"/>
    <line x1="42" y1="34" x2="42" y2="46"/>
  </g>
  <path d="M32 8 L37 16 L37 38 L32 44 L27 38 L27 16 Z" fill="#f4f4f4"/>
  <path d="M27 16 Q32 10 37 16 L32 6 Z" fill="#e11d2e"/>
  <path d="M27 28 L22 34 L27 40 Z" fill="#f4f4f4"/>
  <path d="M37 28 L42 34 L37 40 Z" fill="#f4f4f4"/>
  <path d="M29 44 L32 37 L35 44 Z" fill="#ffb703"/>
  <path d="M30 44 L32 39 L34 44 Z" fill="#fb5607"/>
</svg>